<svg xmlns="http://www.w3.org/2000/svg" fill="none" viewBox="0 0 126 16">
  <path fill="#222" fill-rule="evenodd" d="M25.22 7.87h3.734c-.248-.91-.93-1.278-1.759-1.278-.913 0-1.643.477-1.973 1.278zm5.925 1.557H25.09c.248 1.172 1.277 1.603 2.173 1.603 1.13 0 1.61-.647 1.61-.647h2.09c-.63 1.54-2.14 2.388-3.767 2.388-2.24 0-4.198-1.587-4.198-3.991s1.942-3.868 4.131-3.868 4.282 1.37 4.015 4.515zm20.574-.585c0-1.203-.764-2.141-2.024-2.141s-2.107.94-2.107 2.141.846 2.142 2.107 2.142 2.024-.94 2.024-2.142m-6.306.015c0-2.465 2.057-3.945 4.282-3.945s4.198 1.494 4.198 3.914-2.025 3.945-4.265 3.945-4.215-1.494-4.215-3.914m17.363-.338v4.175h-2.208V8.98c0-.263.2-2.204-1.394-2.28-.78-.047-2.175.353-2.175 2.373v3.621H54.81V4.99h2.01l.008 1.069s.907-1.146 2.597-1.146c2.142 0 3.35 1.48 3.35 3.607zm8.072-1.974c-.697 0-.995.324-.995.647 0 .524.747.678 1.245.77 1.477.294 2.972.71 2.972 2.342s-1.41 2.467-3.121 2.467c-1.909 0-3.386-1.078-3.485-2.712h2.04c.05.462.382 1.064 1.396 1.064.846 0 1.045-.415 1.045-.738 0-.57-.58-.74-1.145-.864-.979-.2-3.086-.57-3.086-2.327 0-1.51 1.561-2.28 3.17-2.28 1.857 0 3.085 1.047 3.186 2.343h-2.042c-.066-.263-.33-.71-1.178-.71zm9.928 2.297c0-1.28-.747-2.034-1.826-2.034-1.012 0-2.026.678-2.026 2.034 0 1.357 1.014 2.034 2.026 2.034 1.079 0 1.826-.756 1.826-2.034M82.85 4.99v10.787h-2.074v-3.838c-.531.554-1.278.831-2.141.831-2.106 0-3.867-1.601-3.867-3.929s1.76-3.93 3.867-3.93c1.656 0 2.277 1.031 2.277 1.031l-.004-.956h1.944zm11.858 2.88h3.734c-.25-.91-.93-1.278-1.759-1.278-.913 0-1.643.477-1.975 1.278m5.925 1.557h-6.057c.25 1.172 1.278 1.603 2.175 1.603 1.129 0 1.611-.647 1.611-.647h2.091c-.632 1.54-2.141 2.388-3.768 2.388-2.24 0-4.198-1.587-4.198-3.991s1.942-3.868 4.133-3.868 4.282 1.37 4.015 4.515zm2.892-1.557h3.735c-.248-.91-.93-1.278-1.759-1.278-.914 0-1.644.477-1.974 1.278zm5.924 1.557h-6.056c.248 1.172 1.276 1.603 2.173 1.603 1.129 0 1.61-.647 1.61-.647h2.09c-.631 1.54-2.141 2.388-3.767 2.388-2.24 0-4.198-1.587-4.198-3.991s1.941-3.868 4.131-3.868c2.189 0 4.282 1.37 4.015 4.515zm7.39 1.543v1.724h-7.053v-1.017l4.001-4.962h-3.833V4.99h6.721v1.017l-4.001 4.963zm8.633-5.981v6.935c0 2.08-1.146 3.93-3.984 3.93-2.655 0-4.099-1.619-4.099-2.836h2.074s.315 1.033 1.958 1.033c1.394 0 1.975-.74 1.975-1.818v-.323c-.365.386-1.062.861-2.307.861-2.174 0-3.534-1.464-3.534-3.605l-.019-4.177h2.158v3.714c0 1.047.399 2.28 1.776 2.28.713 0 1.891-.323 1.891-2.373V4.989zM21.417 10.381c0 .48.197.68.563.68.257 0 .424-.03.67-.099l.136 1.584a4.7 4.7 0 0 1-1.462.225c-1.294 0-2.086-.395-2.086-2.107V1.907h2.177v8.474zm23.059-1.862v4.175h-2.208V8.98c0-1.064.115-2.404-1.41-2.28-.398.03-1.493.2-1.493 2.373v3.621h-2.19V8.98c0-1.064.116-2.404-1.41-2.28-.4.03-1.493.2-1.493 2.373v3.621h-2.191V4.99h2.01v1.069s.77-1.146 2.205-1.146c1.727 0 2.405 1.247 2.405 1.247s.744-1.263 2.64-1.263c2.157 0 3.137 1.48 3.137 3.621l-.002.002zm39.305.645V4.99h2.209v3.714c0 .263-.2 2.204 1.393 2.28.781.047 2.175-.353 2.175-2.373V4.989h2.19v7.705h-2.01l-.009-1.069s-.907 1.146-2.597 1.146c-2.141 0-3.35-1.48-3.35-3.607z" clip-rule="evenodd"/>
  <path fill="#CCC" fill-rule="evenodd" d="m4.103 9.763 4.45 1.973c.55.245.94.656 1.15 1.126.532 1.193-.195 2.413-1.335 2.851s-2.357.156-2.909-1.083l-1.936-4.354c-.15-.338.227-.669.581-.511zm.266-1.276L8.962 6.82c1.526-.554 3.194.493 3.172 2.014v.06c-.034 1.481-1.655 2.477-3.148 1.953l-4.611-1.62a.389.389 0 0 1-.004-.743zm-.257-.577 4.515-1.84c1.5-.611 1.88-2.447.706-3.507l-.047-.041c-1.151-1.026-3.056-.665-3.711.686L3.549 7.382c-.162.332.203.675.565.529l-.002-.002zM2.95 7.182l1.643-4.317a2 2 0 0 0-.045-1.551C4.015.122 2.573-.263 1.432.175.292.615-.353 1.612.202 2.853l1.95 4.35c.15.338.67.324.8-.02z" clip-rule="evenodd"/>
</svg>
